<svg xmlns="http://www.w3.org/2000/svg" width="1000" height="250" viewBox="0 0 1000 250" version="1.1"><path d="M 556.500 71.384 C 553.200 72.038, 547.411 74.019, 543.637 75.787 C 530.713 81.839, 517.790 97.691, 515.449 110.364 C 514.881 113.434, 513.813 114.873, 510.250 117.364 C 507.784 119.089, 505.062 121.004, 504.202 121.619 C 502.881 122.564, 503.496 123.309, 508.154 126.402 C 513.157 129.723, 513.784 130.552, 514.874 135.283 C 520.112 158, 540.435 175.137, 564 176.707 C 576.628 177.548, 592.081 172.407, 601.727 164.153 L 604.954 161.392 598.991 155.491 L 593.027 149.589 590.264 151.828 C 588.744 153.059, 585.025 155.289, 582 156.783 C 577.184 159.162, 575.319 159.500, 567 159.500 C 558.778 159.500, 556.728 159.138, 551.764 156.812 C 542.240 152.348, 533.771 142.317, 531.450 132.750 L 530.783 130 554.011 130 L 577.238 130 583.199 126.379 L 589.159 122.758 583.330 118.882 L 577.500 115.006 554.750 115.003 C 528.858 115, 530.188 115.575, 534.712 106.335 C 537.443 100.759, 543.943 94.124, 549.500 91.244 C 562.430 84.540, 578.863 86.143, 590.275 95.221 L 593.050 97.428 598.775 91.648 L 604.500 85.868 600.500 82.304 C 595.275 77.650, 586.037 73.326, 577.412 71.499 C 569.312 69.783, 564.712 69.758, 556.500 71.384 M 871.161 72.032 C 851.578 77.162, 836.676 92.888, 832.434 112.901 C 830.524 121.909, 830.651 127.315, 832.985 136.443 C 840.254 164.862, 868.500 182.158, 896.760 175.494 C 925.280 168.770, 943.219 139.761, 936.494 111.240 C 930.843 87.269, 908.374 69.785, 883.566 70.055 C 880.780 70.085, 875.198 70.975, 871.161 72.032 M 68.093 79.571 C 54.868 97.040, 50.122 117.861, 54.503 139.185 C 56.331 148.079, 62.294 160.452, 68.572 168.376 L 73.227 174.253 79.259 168.221 L 85.290 162.190 81.834 157.845 C 77.016 151.787, 75.631 149.365, 73.106 142.583 C 68.663 130.649, 68.644 116.373, 73.055 104.584 L 75.236 98.752 99.118 122.618 L 123 146.484 146.919 122.581 L 170.838 98.677 172.481 102.589 C 174.963 108.497, 176.973 117.901, 176.950 123.500 C 176.902 135.195, 171.363 150.272, 164.200 158.200 L 160.670 162.108 166.538 168.038 L 172.405 173.968 174.789 171.734 C 179.167 167.630, 186.092 156.132, 189.024 148.096 C 198.124 123.161, 192.675 94.777, 175.130 75.722 L 172.571 72.943 147.786 97.714 L 123 122.485 98.124 97.624 L 73.247 72.762 68.093 79.571 M 210.012 77.250 C 210.028 82.870, 212.029 90.134, 215.592 97.500 C 217.770 102.002, 222.053 107.142, 232.747 118.091 L 247 132.682 247 153.341 L 247 174 255.500 174 L 264 174 264 153.344 L 264 132.687 277.758 118.594 C 287.249 108.872, 292.515 102.610, 294.733 98.407 C 298.078 92.071, 300.960 81.858, 300.985 76.250 L 301 73 292.627 73 L 284.254 73 283.776 77.976 C 282.931 86.773, 278.229 94.365, 266.244 106.283 L 255.400 117.067 243.362 104.783 C 233.319 94.535, 230.966 91.541, 229.162 86.712 C 227.973 83.529, 227 79.854, 227 78.544 C 227 73.415, 226.318 73, 217.893 73 L 210 73 210.012 77.250 M 411 95.390 L 411 117.925 404.888 122.076 L 398.777 126.226 404.888 130.242 L 411 134.259 411 154.129 L 411 174 419.500 174 L 428 174 428 154.378 L 428 134.755 436.877 135.180 C 444.321 135.536, 446.799 136.119, 452.232 138.793 C 463.854 144.515, 472.835 156.982, 473.812 168.750 L 474.248 174 482.624 174 L 491 174 490.985 170.750 C 490.939 160.603, 484.373 144.968, 476.464 136.171 C 471.967 131.169, 471.828 130.844, 473.618 129.488 C 474.653 128.705, 475.823 128.049, 476.218 128.032 C 476.612 128.014, 478.736 125.615, 480.937 122.699 C 493.239 106.406, 487.667 84.212, 469.122 75.637 C 464.832 73.653, 462.581 73.477, 437.750 73.177 L 411 72.855 411 95.390 M 621.987 76.634 C 618.969 78.633, 616.100 80.630, 615.612 81.072 C 615.123 81.514, 617.598 83.700, 621.112 85.929 L 627.500 89.981 641.750 89.990 L 656 90 656 132 L 656 174 664.500 174 L 673 174 673 132 L 673 90 687.510 90 L 702.019 90 708.399 85.765 L 714.778 81.530 708.420 77.265 L 702.063 73 664.768 73 L 627.473 73 621.987 76.634 M 734 95.390 L 734 117.925 728 122 C 724.700 124.241, 722 126.233, 722 126.427 C 722 126.621, 724.696 128.517, 727.991 130.640 L 733.983 134.500 733.991 154.250 L 734 174 742.500 174 L 751 174 751 154.378 L 751 134.755 759.750 135.199 C 766.719 135.553, 769.722 136.227, 774.500 138.510 C 786.182 144.092, 795.485 156.611, 796.700 168.383 L 797.280 174 805.640 174 C 813.714 174, 814 173.921, 814 171.684 C 814 161.406, 807.291 145.089, 799.385 136.138 C 794.973 131.142, 794.781 130.704, 796.574 129.723 C 797.634 129.144, 800.039 127.057, 801.919 125.085 C 816.082 110.236, 811.625 85.347, 793.182 76.290 L 787.500 73.500 760.750 73.177 L 734 72.855 734 95.390 M 873.300 88.802 C 851.937 96.430, 842.208 119.642, 852 139.623 C 861.725 159.468, 886.673 166.016, 905.249 153.598 C 911.783 149.231, 915.687 144.350, 918.786 136.678 C 920.821 131.639, 921.135 129.411, 920.839 122.115 C 920.419 111.751, 917.998 106.042, 910.774 98.374 C 901.475 88.504, 885.537 84.433, 873.300 88.802 M 428 104 L 428 118 443.750 117.998 C 456.768 117.997, 460.095 117.694, 462.929 116.248 C 473.032 111.097, 473.483 97.923, 463.759 91.995 C 460.861 90.227, 458.701 90.007, 444.250 90.004 L 428 90 428 104 M 751 104 L 751 118 766.750 117.998 C 779.768 117.997, 783.095 117.694, 785.929 116.248 C 795.775 111.228, 796.398 98.480, 787.102 92.270 C 783.915 90.141, 782.688 90, 767.352 90 L 751 90 751 104" stroke="none" fill="#f9fbfc" fill-rule="evenodd"/><path d="M 0 125 L 0 250 244.324 250 L 488.648 250 563.559 213.675 L 638.470 177.349 641.116 181.522 C 645.822 188.943, 654.080 193, 664.477 193 C 672.797 193, 679.587 190.465, 684.542 185.510 C 689.807 180.245, 691.587 174.740, 692.564 160.698 L 693.246 150.897 701.935 146.532 L 710.625 142.168 711.848 145.334 C 712.521 147.075, 713.512 153.450, 714.050 159.500 C 715.417 174.866, 717.139 180.191, 722.458 185.510 C 729.444 192.497, 741.348 194.876, 752.568 191.529 C 759.480 189.467, 764.098 185.245, 768.403 177.052 C 770.442 173.173, 772.740 170, 773.510 170 C 774.281 170, 776.733 173.118, 778.959 176.930 C 785.556 188.225, 793.442 193, 805.500 193 C 814.036 193, 820.071 190.604, 826.914 184.498 C 830.303 181.474, 833.746 179, 834.565 179 C 835.384 179, 840.166 181.479, 845.191 184.508 C 850.216 187.538, 857.967 191.222, 862.414 192.695 C 869.608 195.078, 872.044 195.377, 884.500 195.403 C 897.095 195.430, 899.303 195.163, 906.500 192.742 C 918.252 188.789, 926.412 183.587, 936.199 173.808 C 943.504 166.510, 945.616 163.623, 949.372 155.808 C 955.424 143.215, 957.386 133.733, 956.751 120.144 C 955.848 100.812, 949.380 86.344, 935.451 72.500 C 926.242 63.347, 918.060 58.189, 907.717 55.015 C 903.747 53.797, 899.825 52.577, 899 52.303 C 897.293 51.736, 895.283 52.757, 955.500 23.605 L 999.500 2.305 1000.006 125.902 L 1000.512 249.500 1000.756 124.750 L 1001 0 500.500 0 L 0 0 0 125 M 0.485 125.500 C 0.485 194.250, 0.604 222.228, 0.750 187.672 C 0.896 153.117, 0.896 96.867, 0.750 62.672 C 0.604 28.478, 0.485 56.750, 0.485 125.500 M 556.500 71.384 C 553.200 72.038, 547.411 74.019, 543.637 75.787 C 530.713 81.839, 517.790 97.691, 515.449 110.364 C 514.881 113.434, 513.813 114.873, 510.250 117.364 C 507.784 119.089, 505.062 121.004, 504.202 121.619 C 502.881 122.564, 503.496 123.309, 508.154 126.402 C 513.157 129.723, 513.784 130.552, 514.874 135.283 C 520.112 158, 540.435 175.137, 564 176.707 C 576.628 177.548, 592.081 172.407, 601.727 164.153 L 604.954 161.392 598.991 155.491 L 593.027 149.589 590.264 151.828 C 588.744 153.059, 585.025 155.289, 582 156.783 C 577.184 159.162, 575.319 159.500, 567 159.500 C 558.778 159.500, 556.728 159.138, 551.764 156.812 C 542.240 152.348, 533.771 142.317, 531.450 132.750 L 530.783 130 554.011 130 L 577.238 130 583.199 126.379 L 589.159 122.758 583.330 118.882 L 577.500 115.006 554.750 115.003 C 528.858 115, 530.188 115.575, 534.712 106.335 C 537.443 100.759, 543.943 94.124, 549.500 91.244 C 562.430 84.540, 578.863 86.143, 590.275 95.221 L 593.050 97.428 598.775 91.648 L 604.500 85.868 600.500 82.304 C 595.275 77.650, 586.037 73.326, 577.412 71.499 C 569.312 69.783, 564.712 69.758, 556.500 71.384 M 871.161 72.032 C 851.578 77.162, 836.676 92.888, 832.434 112.901 C 830.524 121.909, 830.651 127.315, 832.985 136.443 C 840.254 164.862, 868.500 182.158, 896.760 175.494 C 925.280 168.770, 943.219 139.761, 936.494 111.240 C 930.843 87.269, 908.374 69.785, 883.566 70.055 C 880.780 70.085, 875.198 70.975, 871.161 72.032 M 68.093 79.571 C 54.868 97.040, 50.122 117.861, 54.503 139.185 C 56.331 148.079, 62.294 160.452, 68.572 168.376 L 73.227 174.253 79.259 168.221 L 85.290 162.190 81.834 157.845 C 77.016 151.787, 75.631 149.365, 73.106 142.583 C 68.663 130.649, 68.644 116.373, 73.055 104.584 L 75.236 98.752 99.118 122.618 L 123 146.484 146.919 122.581 L 170.838 98.677 172.481 102.589 C 174.963 108.497, 176.973 117.901, 176.950 123.500 C 176.902 135.195, 171.363 150.272, 164.200 158.200 L 160.670 162.108 166.538 168.038 L 172.405 173.968 174.789 171.734 C 179.167 167.630, 186.092 156.132, 189.024 148.096 C 198.124 123.161, 192.675 94.777, 175.130 75.722 L 172.571 72.943 147.786 97.714 L 123 122.485 98.124 97.624 L 73.247 72.762 68.093 79.571 M 210.012 77.250 C 210.028 82.870, 212.029 90.134, 215.592 97.500 C 217.770 102.002, 222.053 107.142, 232.747 118.091 L 247 132.682 247 153.341 L 247 174 255.500 174 L 264 174 264 153.344 L 264 132.687 277.758 118.594 C 287.249 108.872, 292.515 102.610, 294.733 98.407 C 298.078 92.071, 300.960 81.858, 300.985 76.250 L 301 73 292.627 73 L 284.254 73 283.776 77.976 C 282.931 86.773, 278.229 94.365, 266.244 106.283 L 255.400 117.067 243.362 104.783 C 233.319 94.535, 230.966 91.541, 229.162 86.712 C 227.973 83.529, 227 79.854, 227 78.544 C 227 73.415, 226.318 73, 217.893 73 L 210 73 210.012 77.250 M 411 95.390 L 411 117.925 404.888 122.076 L 398.777 126.226 404.888 130.242 L 411 134.259 411 154.129 L 411 174 419.500 174 L 428 174 428 154.378 L 428 134.755 436.877 135.180 C 444.321 135.536, 446.799 136.119, 452.232 138.793 C 463.854 144.515, 472.835 156.982, 473.812 168.750 L 474.248 174 482.624 174 L 491 174 490.985 170.750 C 490.939 160.603, 484.373 144.968, 476.464 136.171 C 471.967 131.169, 471.828 130.844, 473.618 129.488 C 474.653 128.705, 475.823 128.049, 476.218 128.032 C 476.612 128.014, 478.736 125.615, 480.937 122.699 C 493.239 106.406, 487.667 84.212, 469.122 75.637 C 464.832 73.653, 462.581 73.477, 437.750 73.177 L 411 72.855 411 95.390 M 621.987 76.634 C 618.969 78.633, 616.100 80.630, 615.612 81.072 C 615.123 81.514, 617.598 83.700, 621.112 85.929 L 627.500 89.981 641.750 89.990 L 656 90 656 132 L 656 174 664.500 174 L 673 174 673 132 L 673 90 687.510 90 L 702.019 90 708.399 85.765 L 714.778 81.530 708.420 77.265 L 702.063 73 664.768 73 L 627.473 73 621.987 76.634 M 734 95.390 L 734 117.925 728 122 C 724.700 124.241, 722 126.233, 722 126.427 C 722 126.621, 724.696 128.517, 727.991 130.640 L 733.983 134.500 733.991 154.250 L 734 174 742.500 174 L 751 174 751 154.378 L 751 134.755 759.750 135.199 C 766.719 135.553, 769.722 136.227, 774.500 138.510 C 786.182 144.092, 795.485 156.611, 796.700 168.383 L 797.280 174 805.640 174 C 813.714 174, 814 173.921, 814 171.684 C 814 161.406, 807.291 145.089, 799.385 136.138 C 794.973 131.142, 794.781 130.704, 796.574 129.723 C 797.634 129.144, 800.039 127.057, 801.919 125.085 C 816.082 110.236, 811.625 85.347, 793.182 76.290 L 787.500 73.500 760.750 73.177 L 734 72.855 734 95.390 M 873.300 88.802 C 851.937 96.430, 842.208 119.642, 852 139.623 C 861.725 159.468, 886.673 166.016, 905.249 153.598 C 911.783 149.231, 915.687 144.350, 918.786 136.678 C 920.821 131.639, 921.135 129.411, 920.839 122.115 C 920.419 111.751, 917.998 106.042, 910.774 98.374 C 901.475 88.504, 885.537 84.433, 873.300 88.802 M 428 104 L 428 118 443.750 117.998 C 456.768 117.997, 460.095 117.694, 462.929 116.248 C 473.032 111.097, 473.483 97.923, 463.759 91.995 C 460.861 90.227, 458.701 90.007, 444.250 90.004 L 428 90 428 104 M 751 104 L 751 118 766.750 117.998 C 779.768 117.997, 783.095 117.694, 785.929 116.248 C 795.775 111.228, 796.398 98.480, 787.102 92.270 C 783.915 90.141, 782.688 90, 767.352 90 L 751 90 751 104 M 876.299 110.960 C 872.104 113.517, 869.999 117.777, 870.004 123.700 C 870.014 137.416, 885.690 143.510, 895.564 133.636 C 901.860 127.340, 900.443 115.679, 892.818 111.030 C 888.427 108.353, 880.628 108.320, 876.299 110.960" stroke="none" fill="#236bfb" fill-rule="evenodd"/></svg>