<svg xmlns="http://www.w3.org/2000/svg" width="3840" height="2160" viewBox="0 0 3840 2160" version="1.1"><path d="" stroke="none" fill="#282424" fill-rule="evenodd"/><path d="M 117.500 7.474 C 106.516 9.507, 98.728 11.760, 90.085 15.405 C 51.242 31.787, 24.255 63.515, 13.877 105 L 11.500 114.500 11.500 1080.500 L 11.500 2046.500 14.174 2057 C 27.013 2107.416, 66.906 2144.838, 116.926 2153.389 C 125.571 2154.866, 275.418 2155, 1923.500 2155 C 3571.582 2155, 3721.429 2154.866, 3730.074 2153.389 C 3782.870 2144.364, 3825.364 2101.870, 3834.389 2049.074 C 3835.863 2040.450, 3836 1957.961, 3836 1080.500 C 3836 203.039, 3835.863 120.550, 3834.389 111.926 C 3825.878 62.139, 3789.084 22.712, 3738.500 9.176 L 3728.500 6.500 1926.500 6.339 C 454.889 6.208, 123.217 6.416, 117.500 7.474" stroke="none" fill="#242424" fill-rule="evenodd"/></svg>